<?xml version="1.0" encoding="UTF-8" standalone="no"?>
<svg xmlns:dc="http://purl.org/dc/elements/1.1/" xmlns:cc="http://creativecommons.org/ns#" xmlns:rdf="http://www.w3.org/1999/02/22-rdf-syntax-ns#" xmlns:svg="http://www.w3.org/2000/svg" xmlns="http://www.w3.org/2000/svg" xmlns:sodipodi="http://sodipodi.sourceforge.net/DTD/sodipodi-0.dtd" xmlns:inkscape="http://www.inkscape.org/namespaces/inkscape" width="25" height="25" viewBox="0 0 25 25" fill="none" version="1.1" id="svg13" sodipodi:docname="icon-user-active.svg" inkscape:version="0.92.5 (2060ec1f9f, 2020-04-08)">
  <metadata id="metadata17">
    <rdf:RDF>
      <cc:Work rdf:about="">
        <dc:format>image/svg+xml</dc:format>
        <dc:type rdf:resource="http://purl.org/dc/dcmitype/StillImage"/>
        <dc:title/>
      </cc:Work>
    </rdf:RDF>
  </metadata>
  <sodipodi:namedview pagecolor="#ffffff" bordercolor="#666666" borderopacity="1" objecttolerance="10" gridtolerance="10" guidetolerance="10" inkscape:pageopacity="0" inkscape:pageshadow="2" inkscape:window-width="1920" inkscape:window-height="1009" id="namedview15" showgrid="false" inkscape:zoom="5.6568543" inkscape:cx="45.840744" inkscape:cy="37.414227" inkscape:window-x="0" inkscape:window-y="0" inkscape:window-maximized="1" inkscape:current-layer="g6"/>
  <g clip-path="url(#clip0)" id="g6">
    <path d="M 21.4443,24.3665 H 3.44434 v -5.043 c 0.00158,-1.3142 0.52435,-2.5741 1.45362,-3.5034 0.92927,-0.9292 2.18918,-1.452 3.50338,-1.4536 h 8.08596 c 1.3142,0.0016 2.5741,0.5244 3.5034,1.4536 0.9293,0.9293 1.452,2.1892 1.4536,3.5034 z" id="path2" style="fill:#438e44;fill-opacity:1" inkscape:connector-curvature="0" sodipodi:nodetypes="ccccccccc"/>
    <path d="M12.4443 12.3665C11.2577 12.3665 10.0976 12.0146 9.11092 11.3553C8.12422 10.696 7.35519 9.75898 6.90106 8.66262C6.44694 7.56626 6.32812 6.35986 6.55963 5.19598C6.79114 4.03209 7.36258 2.96299 8.2017 2.12388C9.04081 1.28476 10.1099 0.713318 11.2738 0.481807C12.4377 0.250296 13.6441 0.369116 14.7404 0.823242C15.8368 1.27737 16.7739 2.0464 17.4332 3.0331C18.0924 4.01979 18.4443 5.17983 18.4443 6.36652C18.4427 7.95733 17.8101 9.48253 16.6852 10.6074C15.5604 11.7323 14.0352 12.3649 12.4443 12.3665ZM12.4443 2.36652C11.6532 2.36652 10.8799 2.60111 10.2221 3.04064C9.56426 3.48017 9.05157 4.10488 8.74882 4.83579C8.44607 5.56669 8.36686 6.37096 8.5212 7.14688C8.67554 7.9228 9.0565 8.63554 9.61591 9.19495C10.1753 9.75436 10.8881 10.1353 11.664 10.2897C12.4399 10.444 13.2442 10.3648 13.9751 10.062C14.706 9.75929 15.3307 9.2466 15.7702 8.5888C16.2097 7.931 16.4443 7.15764 16.4443 6.36652C16.4443 5.30565 16.0229 4.28824 15.2728 3.53809C14.5226 2.78795 13.5052 2.36652 12.4443 2.36652Z" fill="#253D4E" id="path4" style="fill:#438e44;fill-opacity:1"/>
  </g>
  <defs id="defs11">
    <clipPath id="clip0">
      <rect width="24" height="24" fill="white" transform="translate(0.444336 0.366516)" id="rect8"/>
    </clipPath>
  </defs>
</svg>